
<svg width="auto" height="auto" viewBox="0 0 941 741" fill="none" xmlns="http://www.w3.org/2000/svg" 
>
            <g id="woman-plant">
            <path id="Vector" d="M497.812 454.237H52.7313V710.946H497.812V454.237Z" fill="#3F3D56"/>
            <path id="Vector_2" d="M570.006 480.534C580.342 480.534 588.72 470.723 588.72 458.62C588.72 446.517 580.342 436.706 570.006 436.706C559.671 436.706 551.293 446.517 551.293 458.62C551.293 470.723 559.671 480.534 570.006 480.534Z" fill="#3F3D56"/>
            <path id="Vector_3" d="M531.466 741C550.796 741 566.466 725.33 566.466 706V489.237C566.466 469.907 550.796 454.237 531.466 454.237H507.392C488.062 454.237 472.612 469.971 470.378 489.172C456.695 606.789 374.95 697.172 276.152 697.172C177.354 697.172 95.6089 606.789 81.9261 489.172C79.6925 469.971 64.2421 454.237 44.9122 454.237H35C15.67 454.237 0 469.907 0 489.237V706C0 725.33 15.67 741 35 741H531.466Z" fill="#3F3D56"/>
            <path id="Vector_4" d="M276.152 697.172C384.533 697.172 472.392 588.406 472.392 454.237H79.9122C79.9122 588.406 167.772 697.172 276.152 697.172Z" fill="#63FF65"/>
            <path id="Vector_5" d="M833.295 556.366C930.007 495.805 968.75 349.657 919.83 229.933L569.606 449.24C618.526 568.964 736.583 616.926 833.295 556.366Z" fill="#3F3D56"/>
            <path id="Vector_6" d="M840.389 104.241C841.041 103.693 841.67 103.107 842.283 102.496C841.007 107.226 838.95 111.576 836.243 115.269V115.269C835.609 116.133 834.933 116.941 834.239 117.722C834.225 117.524 834.21 117.326 834.201 117.128C834.12 115.213 834.233 113.197 834.254 111.224C836.667 109.445 838.755 107.067 840.389 104.241V104.241Z" fill="url(#paint0_linear)"/>
            <path id="Vector_7" d="M849.879 34.3752C851.351 31.3036 852.2 27.8361 852.353 24.2696C852.506 20.7031 851.959 17.1439 850.757 13.8966C849.556 10.6493 847.737 7.81082 845.456 5.62407C843.175 3.43732 840.5 1.96751 837.66 1.34046C834.82 0.71341 831.899 0.947803 829.148 2.0236C826.397 3.09939 823.897 4.98453 821.864 7.51758C819.83 10.0506 818.322 13.1561 817.47 16.5682C816.617 19.9803 816.445 23.5973 816.969 27.1095C811.865 30.1188 807.593 34.9296 804.692 40.9367C801.79 46.9439 800.389 53.879 800.663 60.8697C798.225 65.5037 796.694 70.7785 796.192 76.274C795.691 81.7696 796.232 87.3342 797.774 92.5249C799.316 97.7156 801.816 102.389 805.074 106.173C808.332 109.957 812.258 112.748 816.541 114.322C820.824 115.896 825.344 116.211 829.742 115.242C834.141 114.272 838.295 112.045 841.876 108.737C845.456 105.43 848.364 101.133 850.366 96.1891C852.369 91.2453 853.411 85.7911 853.411 80.2606C853.411 79.6941 853.398 79.1315 853.377 78.5715C856.936 71.8087 858.53 63.7469 857.894 55.7135C857.258 47.6801 854.431 40.1543 849.879 34.3752Z" fill="#2F2E41"/>
            <g id="Group" opacity="0.1">
            <path id="Vector_8" opacity="0.1" d="M816.732 21.5002C816.812 21.4518 816.889 21.3962 816.969 21.3486C816.912 20.9659 816.873 20.5769 816.832 20.1885C816.823 20.2697 816.811 20.3493 816.803 20.4308C816.768 20.789 816.753 21.1442 816.732 21.5002Z" fill="black"/>
            <path id="Vector_9" opacity="0.1" d="M857.824 57.6713C857.301 63.0737 855.78 68.2541 853.377 72.8097C853.398 73.3696 853.411 73.9322 853.411 74.4987C853.412 83.6737 850.546 92.4934 845.412 99.111C840.279 105.729 833.276 109.631 825.871 110.001C818.465 110.371 811.231 107.18 805.684 101.096C800.136 95.0126 796.705 86.5076 796.108 77.3624C796.046 78.319 796.007 79.2839 796.007 80.2605C796.007 89.684 799.031 98.7216 804.414 105.385C809.797 112.048 817.097 115.792 824.709 115.792C832.321 115.792 839.622 112.048 845.004 105.385C850.387 98.7216 853.411 89.684 853.411 80.2605C853.411 79.694 853.398 79.1315 853.377 78.5715C856.857 71.9694 858.459 64.1187 857.928 56.2625C857.897 56.7316 857.87 57.2 857.824 57.6713Z" fill="black"/>
            <path id="Vector_10" opacity="0.1" d="M852.234 20.1634C851.924 23.1498 851.123 26.0256 849.879 28.6133C850.381 29.2514 850.855 29.92 851.317 30.602C852.295 27.2641 852.61 23.6836 852.234 20.1634H852.234Z" fill="black"/>
            </g>
            <path id="Vector_11" d="M734.218 415.586C734.355 417.608 734.797 419.58 735.522 421.4C735.892 422.306 736.429 423.09 737.09 423.69C737.752 424.289 738.518 424.686 739.327 424.849C740.815 424.86 742.273 424.337 743.525 423.342C746.081 421.69 748.733 419.77 750.067 416.606C751.358 413.542 751.172 409.887 750.954 406.442L749.238 379.348C745.105 379.208 740.951 379.21 736.821 379.489C732.73 379.765 732.012 380.957 732.581 385.902C733.715 395.742 733.163 405.738 734.218 415.586Z" fill="#FBBEBE"/>
            <path id="Vector_12" d="M855.495 433.898L865.331 453.571C865.753 454.715 866.521 455.609 867.47 456.061C868.176 456.187 868.895 456.032 869.525 455.619C872.805 453.844 875.316 450.474 877.725 447.196C879.36 444.972 881.05 442.626 881.663 439.716C881.981 438.139 881.967 436.486 881.623 434.917C881.279 433.348 880.616 431.914 879.698 430.751C878.549 429.513 877.308 428.414 875.99 427.47C868.214 420.978 864.705 408.644 857.029 401.972C856.586 401.516 856.047 401.229 855.475 401.144C854.904 401.185 854.353 401.414 853.877 401.807C850.38 404.181 846.882 406.554 843.384 408.928C838.84 412.005 840.281 412.366 843.731 415.68C848.814 420.563 851.989 427.389 855.495 433.898Z" fill="#FBBEBE"/>
            <path id="Vector_13" d="M755.568 399.917C754.127 399.355 752.513 398.849 751.155 399.667C750.519 400.147 749.982 400.802 749.583 401.581C749.184 402.359 748.935 403.24 748.855 404.156C748.581 405.964 748.614 407.841 748.208 409.61C747.525 412.594 745.688 414.926 743.918 417.121C743.203 418.177 742.273 418.979 741.224 419.442C739.806 419.891 738.298 419.069 736.855 419.381C736.015 419.648 735.25 420.194 734.642 420.961C734.035 421.727 733.608 422.685 733.409 423.73C733.034 425.826 732.977 427.989 733.24 430.11L734.357 445.211C734.554 447.052 734.569 448.915 734.402 450.76C733.991 454.079 732.432 456.993 731.568 460.176C730.703 463.359 730.751 467.423 732.915 469.449C733.671 470.072 734.541 470.451 735.446 470.549C736.35 470.648 737.261 470.464 738.093 470.013C739.75 469.088 741.216 467.71 742.381 465.982C749.007 457.039 751.964 444.925 757.117 434.603C758.432 432.215 759.609 429.715 760.638 427.121C761.345 425.116 761.794 422.989 762.367 420.918C763.157 418.152 764.105 415.46 765.204 412.86C765.817 411.373 768.163 407.793 767.67 406.132C766.83 403.298 757.799 400.788 755.568 399.917Z" fill="#2F2E41"/>
            <path id="Vector_14" d="M875.023 441.569C873.533 445.03 871.045 447.669 868.054 448.963C867.186 449.253 866.378 449.771 865.685 450.48C865.23 451.168 864.948 452.006 864.874 452.89C864.801 453.774 864.939 454.666 865.27 455.454C865.955 457.014 866.846 458.422 867.906 459.619C873.853 467.41 877.786 477.221 879.201 487.796C879.553 490.465 879.783 493.301 881.073 495.483C883.593 499.745 888.956 499.466 892.745 497.037C893.902 496.38 894.906 495.372 895.664 494.106C896.295 492.734 896.697 491.218 896.844 489.65C897.528 485.762 897.906 481.802 897.972 477.824C897.898 470.316 895.62 463.139 894.532 455.753C892.988 445.27 893.762 433.979 889.818 424.507C889.425 423.395 888.805 422.429 888.018 421.705C887.031 421.063 885.925 420.756 884.811 420.814C881.248 420.633 877.683 420.594 874.116 420.697C873.117 420.726 871.948 420.882 871.43 421.94C870.901 423.023 871.364 424.405 871.829 425.532C874.036 430.879 877.614 435.154 875.023 441.569Z" fill="#2F2E41"/>
            <path id="Vector_15" d="M790.394 253.673C789.397 254.691 788.722 256.11 788.486 257.682C788.249 259.255 788.468 260.88 789.102 262.273C789.893 263.893 791.31 265.402 790.999 267.255C790.677 269.178 788.766 269.832 787.199 270.14C773.386 272.86 759.944 277.866 746.551 282.858L732.503 288.094C728.452 289.604 724.331 291.155 720.831 294.096C717.62 296.805 715.078 300.563 713.489 304.954C711.883 309.412 711.331 314.322 710.758 319.151C708.648 336.922 705.954 354.87 699.548 370.987L733.62 384.817C736.923 386.319 740.345 387.385 743.829 387.998C747.15 388.339 750.493 388.139 753.772 387.402C753.561 377.984 753.432 368.282 753.22 358.863C753.198 355.888 753.042 352.917 752.753 349.964C752.242 345.451 751.111 341.06 750.758 336.523C752.33 334.918 754.615 335.318 756.651 335.391C761.299 335.559 765.837 333.559 769.971 330.922C774.104 328.286 777.948 325 782.059 322.309C788.907 317.825 796.696 314.809 801.924 307.731C799.261 320.296 792.97 331.244 791.753 344.146C790.524 357.182 794.809 369.939 799.005 381.992L812.409 420.502C813.889 424.754 815.86 429.533 819.509 430.547C821.782 431.179 824.128 430.123 826.238 428.9C838.575 421.747 848.445 408.3 861.617 403.999C860.636 395.924 855.481 389.249 852.562 381.926C850.101 375.749 849.297 368.794 847.656 362.213C846.016 355.632 843.197 348.963 838.241 345.835C835.887 344.35 832.717 343.057 832.497 339.799C832.482 338.752 832.661 337.715 833.021 336.768C834.786 331.269 837.526 326.332 841.038 322.319C841.491 321.888 841.852 321.328 842.092 320.686C842.223 320.051 842.249 319.391 842.171 318.743C841.922 313.499 844.19 308.594 846.72 304.378C849.25 300.162 852.174 296.149 853.6 291.202C856.053 282.697 853.619 273.35 851.194 264.832C850.214 261.39 849.183 257.84 847.17 255.174C844.013 250.992 839.096 249.787 834.5 249.163C819.64 247.146 802.202 242.324 790.394 253.673Z" fill="#2F2E41"/>
            <g id="Group_2" opacity="0.1">
            <path id="Vector_16" opacity="0.1" d="M788.846 256.216C789.346 256.09 789.81 255.801 790.188 255.377C790.567 254.954 790.847 254.413 790.999 253.811C791.038 253.575 791.049 253.333 791.034 253.093C790.82 253.285 790.604 253.471 790.394 253.673C789.711 254.343 789.178 255.219 788.846 256.216Z" fill="black"/>
            </g>
            <path id="Vector_17" d="M813.876 120.372C814.053 124.574 813.028 129.07 810.419 131.766C809.582 132.631 808.61 133.286 807.805 134.196C807.089 135.106 806.542 136.198 806.202 137.396C805.862 138.594 805.737 139.87 805.835 141.134C805.933 142.398 806.253 143.621 806.772 144.717C807.29 145.812 807.995 146.755 808.838 147.479C811.547 149.526 814.992 148.974 818.119 148.302C822.289 147.58 826.378 146.26 830.301 144.367C834.247 142.448 837.606 139.043 839.902 134.632C836.497 132.282 834.643 127.345 834.437 122.526C834.23 117.701 835.298 112.225 832.83 108.481C830.452 104.877 825.979 104.903 822.355 106.14C820.536 106.761 818.775 107.62 816.954 108.228C816.031 108.536 812.982 108.544 812.379 109.386C811.282 110.916 813.773 117.941 813.876 120.372Z" fill="#FBBEBE"/>
            <path id="Vector_18" opacity="0.1" d="M813.876 120.372C814.053 124.574 813.028 129.07 810.419 131.766C809.582 132.631 808.61 133.286 807.805 134.196C807.089 135.106 806.542 136.198 806.202 137.396C805.862 138.594 805.737 139.87 805.835 141.134C805.933 142.398 806.253 143.621 806.772 144.717C807.29 145.812 807.995 146.755 808.838 147.479C811.547 149.526 814.992 148.974 818.119 148.302C822.289 147.58 826.378 146.26 830.301 144.367C834.247 142.448 837.606 139.043 839.902 134.632C836.497 132.282 834.643 127.345 834.437 122.526C834.23 117.701 835.298 112.225 832.83 108.481C830.452 104.877 825.979 104.903 822.355 106.14C820.536 106.761 818.775 107.62 816.954 108.228C816.031 108.536 812.982 108.544 812.379 109.386C811.282 110.916 813.773 117.941 813.876 120.372Z" fill="black"/>
            <path id="Vector_19" d="M824.321 120.113C835.46 120.113 844.49 108.935 844.49 95.1453C844.49 81.3559 835.46 70.1773 824.321 70.1773C813.182 70.1773 804.152 81.3559 804.152 95.1453C804.152 108.935 813.182 120.113 824.321 120.113Z" fill="#FBBEBE"/>
            <path id="Vector_20" d="M760.634 286.704C760.271 288.677 759.628 290.554 758.735 292.248C756.383 297.42 755.534 303.433 756.327 309.287C756.753 312.189 757.749 314.918 759.227 317.231C760.706 319.545 762.622 321.373 764.805 322.553C766.693 323.474 769.032 323.716 770.589 322.105C767.895 317.766 767.752 311.842 767.913 306.372C767.866 305.351 768.063 304.336 768.479 303.452C768.589 303.242 768.733 303.062 768.903 302.923C769.072 302.784 769.262 302.69 769.461 302.646C769.661 302.603 769.866 302.61 770.063 302.668C770.26 302.726 770.446 302.833 770.608 302.984C770.54 306.428 771.078 309.849 772.184 313.01C772.61 314.226 773.339 315.568 774.41 315.534C775.946 315.484 776.36 312.909 776.302 311.009C776.065 303.265 775.758 295.2 772.743 288.409C771.639 285.923 770.168 283.589 769.748 280.8C769.728 279.833 769.458 278.9 768.977 278.137C768.645 277.814 768.256 277.59 767.842 277.483C766.106 276.875 761.996 274.984 760.563 276.998C759.027 279.156 760.912 284.123 760.634 286.704Z" fill="#FBBEBE"/>
            <path id="Vector_21" d="M790.587 154.044C788.274 153.722 786.448 156.343 785.18 158.76C780.459 167.772 777.061 177.746 775.142 188.222C774.165 193.569 773.552 199.122 771.501 203.981C771.007 204.99 770.61 206.066 770.316 207.188C770.141 208.901 770.079 210.629 770.131 212.355C769.917 215.475 768.429 218.247 767.929 221.316C767.631 223.145 767.691 225.039 767.426 226.876C766.962 230.093 765.534 232.955 764.62 236.021C763.011 241.42 763.026 247.347 761.842 252.912C761.697 253.829 761.377 254.69 760.907 255.422C760.105 256.513 758.822 256.78 757.773 257.479C756.947 258.105 756.238 258.942 755.695 259.935C755.152 260.927 754.787 262.052 754.623 263.234C754.31 265.597 754.274 268.005 754.516 270.381L755.443 285.15C756.399 284.654 757.023 283.315 757.82 282.495C759.278 280.994 761.419 281.331 763.285 281.749L766.004 282.359C768.784 282.983 771.808 283.778 773.592 286.491C775.009 283.748 774.199 279.704 776.377 277.878C777.086 277.284 777.963 277.083 778.71 276.567C779.413 276.004 779.996 275.238 780.41 274.336C780.823 273.434 781.054 272.422 781.084 271.385C781.127 269.314 780.896 267.247 780.401 265.268C783.893 263.443 786.058 259.066 787.424 254.689C788.928 249.392 790.015 243.928 790.672 238.373C793.826 216.424 796.709 194.319 796.996 172.029C797.195 168.301 796.862 164.558 796.014 160.972C795.019 157.453 793.58 154.461 790.587 154.044Z" fill="#D0CDE1"/>
            <path id="Vector_22" d="M841.435 130.141C838.106 134.464 833.851 137.523 829.168 138.961C824.51 140.379 819.754 141.247 814.963 141.552C813.49 141.857 811.979 141.695 810.57 141.082C809.216 140.322 808.186 138.337 808.738 136.628C809.004 136.099 809.185 135.51 809.268 134.895C809.244 133.374 807.436 133.248 806.263 133.698C798.498 136.671 791.052 142.557 787.469 151.588C785.445 156.689 784.777 162.425 784.135 168.052C782.448 182.853 780.764 197.976 783.026 212.659C784.233 220.488 786.554 228.12 786.698 236.089C786.78 240.554 786.171 245.002 786.2 249.469C786.092 251.033 786.43 252.595 787.155 253.883C787.714 254.686 788.556 255.193 788.946 256.136C789.597 257.714 788.727 259.881 789.584 261.3C790.64 263.048 792.846 261.793 794.301 260.56C801.62 254.408 810.459 251.653 819.258 252.782C829.829 254.187 840.333 261.161 850.585 257.675C850.057 256.723 849.601 255.712 849.224 254.655C844.112 233.86 844.458 210.615 852.109 191.05C854.722 184.366 858.191 177.996 859.192 170.674C859.596 167.25 859.628 163.773 859.287 160.338C858.748 153.691 857.469 146.99 854.551 141.37C851.633 135.751 846.805 130.799 841.435 130.141Z" fill="#D0CDE1"/>
            <path id="Vector_23" d="M792.64 293.13C791.819 295.845 791.424 298.73 791.478 301.628C791.403 304.401 791.514 307.177 791.812 309.926C791.983 312.276 792.66 314.527 793.772 316.444C794.341 317.387 795.122 318.101 796.018 318.495C796.914 318.889 797.885 318.947 798.807 318.66C799.533 318.286 800.182 317.717 800.707 316.994C801.233 316.271 801.621 315.411 801.844 314.478C802.279 312.613 802.597 310.71 802.798 308.785C803.682 303.118 806.086 297.798 806.128 292.026C806.161 291.342 806.074 290.656 805.871 290.018C804.997 287.646 800.713 284.983 798.62 285.383C796.001 285.882 793.59 290.39 792.64 293.13Z" fill="#FBBEBE"/>
            <path id="Vector_24" opacity="0.1" d="M850.843 151.221C850.444 156.185 854.324 159.927 855.857 164.54C856.484 166.694 856.841 168.954 856.915 171.241C857.993 187.115 857.156 203.081 856.319 218.976C856.166 224.268 855.636 229.532 854.734 234.709C852.569 245.571 847.244 254.987 842.025 264.121C840.231 267.783 837.488 270.584 834.243 272.066L816.335 282.805C814.091 284.032 811.959 285.55 809.974 287.334C807.67 289.569 805.859 292.489 804.708 295.821C801.234 293.623 797.626 291.65 794.152 289.452C793.339 288.938 792.43 288.266 792.289 287.149C792.101 285.651 793.366 284.592 794.237 283.525C795.866 281.529 796.369 278.572 797.251 275.953C800.133 267.397 807.382 261.92 809.996 253.233C811.001 249.895 811.308 246.123 813.09 243.325C814.109 241.922 815.256 240.67 816.507 239.592C819.268 236.691 821.804 233.477 824.082 229.992C825.105 228.678 825.942 227.16 826.559 225.502C827.342 223.037 827.107 220.288 827.148 217.639C827.281 208.969 830.448 200.883 832.387 192.55C834.213 184.702 834.974 176.471 837.369 168.861C839.764 161.252 844.457 153.267 850.843 151.221Z" fill="black"/>
            <path id="Vector_25" d="M853.17 151.221C852.771 156.185 856.651 159.927 858.184 164.54C858.811 166.694 859.168 168.954 859.243 171.241C860.32 187.115 859.483 203.081 858.646 218.976C858.493 224.268 857.963 229.532 857.062 234.709C854.897 245.571 849.571 254.987 844.352 264.121C842.559 267.783 839.815 270.584 836.57 272.066L818.662 282.805C816.418 284.032 814.286 285.55 812.301 287.334C809.997 289.569 808.186 292.489 807.035 295.821C803.561 293.623 799.953 291.65 796.479 289.452C795.666 288.938 794.757 288.266 794.616 287.149C794.428 285.651 795.693 284.592 796.564 283.525C798.194 281.529 798.696 278.572 799.578 275.953C802.46 267.397 809.709 261.92 812.324 253.233C813.328 249.895 813.636 246.123 815.417 243.325C816.437 241.922 817.583 240.67 818.834 239.592C821.595 236.691 824.131 233.477 826.409 229.992C827.432 228.678 828.27 227.16 828.886 225.502C829.669 223.037 829.434 220.288 829.475 217.639C829.609 208.969 832.775 200.883 834.714 192.55C836.54 184.702 837.302 176.471 839.697 168.861C842.092 161.252 846.784 153.267 853.17 151.221Z" fill="#D0CDE1"/>
            <path id="Vector_26" d="M834.323 56.5469C828.109 55.6065 821.817 57.2191 816.415 61.1366C817.211 61.1734 818.011 61.2407 818.816 61.3611C824.784 62.2532 830.376 65.443 834.801 70.4803C839.226 75.5176 842.262 82.1481 843.48 89.4361C844.698 96.724 844.036 104.301 841.589 111.099C839.141 117.896 835.031 123.571 829.838 127.321C837.237 127.655 844.453 124.437 849.98 118.338C855.507 112.24 858.916 103.733 859.495 94.5964C860.074 85.4593 857.778 76.3988 853.087 69.3081C848.396 62.2173 841.673 57.6451 834.323 56.5469V56.5469Z" fill="#2F2E41"/>
            <path id="Vector_27" d="M843.152 76.2992C843.85 78.2532 844.228 80.3581 844.267 82.4936C844.306 84.6291 844.005 86.7531 843.379 88.744C843.244 88.2293 843.086 87.7236 842.909 87.2288C839.361 77.4566 828.432 73.4116 818.499 78.1941C812.647 81.0115 808.448 86.2645 806.709 92.1031C804.18 82.6564 809.317 71.8024 818.743 67.2644C828.676 62.4819 839.605 66.5269 843.152 76.2992Z" fill="#2F2E41"/>
            <path id="Vector_28" d="M769.439 310.817L765.727 171.909" stroke="#63FF65" stroke-width="2" stroke-miterlimit="10"/>
            <path id="Vector_29" d="M765.727 191.563C774.496 191.563 781.604 182.763 781.604 171.909C781.604 161.054 774.496 152.254 765.727 152.254C756.959 152.254 749.851 161.054 749.851 171.909C749.851 182.763 756.959 191.563 765.727 191.563Z" fill="#63FF65"/>
            <path id="Vector_30" d="M768.015 257.521C768.015 257.521 764.135 197.257 717.852 206.176Z" fill="#63FF65"/>
            </g>
            <g id="plant1">
            <path id="Vector_31" d="M380.514 414.963C407.846 414.963 430.002 391.17 430.002 361.819C430.002 332.469 407.846 308.676 380.514 308.676C353.183 308.676 331.026 332.469 331.026 361.819C331.026 391.17 353.183 414.963 380.514 414.963Z" fill="#63FF65"/>
            <path id="Vector_32" d="M380.066 457.926L380.472 361.527" stroke="#3F3D56" stroke-width="2" stroke-miterlimit="10"/>
            <path id="Vector_33" d="M380.222 420.939C380.222 420.939 378.584 379.045 341.387 383.733Z" fill="#3F3D56"/>
            <path id="Vector_34" d="M380.472 375.159C387.483 375.159 393.166 369.056 393.166 361.527C393.166 353.998 387.483 347.895 380.472 347.895C373.461 347.895 367.777 353.998 367.777 361.527C367.777 369.056 373.461 375.159 380.472 375.159Z" fill="#3F3D56"/>
            </g>
            <g id="plant3">
            <path id="Vector_35" d="M173.203 308.267C200.534 308.267 222.691 284.474 222.691 255.124C222.691 225.774 200.534 201.981 173.203 201.981C145.872 201.981 123.715 225.774 123.715 255.124C123.715 284.474 145.872 308.267 173.203 308.267Z" fill="#63FF65"/>
            <path id="Vector_36" d="M170.401 451.315L173.249 255.065" stroke="#3F3D56" stroke-width="2" stroke-miterlimit="10"/>
            <path id="Vector_37" d="M173.249 268.697C180.26 268.697 185.944 262.594 185.944 255.065C185.944 247.536 180.26 241.433 173.249 241.433C166.238 241.433 160.554 247.536 160.554 255.065C160.554 262.594 166.238 268.697 173.249 268.697Z" fill="#3F3D56"/>
            <path id="Vector_38" d="M172.443 310.577C172.443 310.577 171.238 268.665 133.995 272.911Z" fill="#3F3D56"/>
            <path id="Vector_39" d="M170.455 447.568C170.455 447.568 179.784 367.168 132.695 362.484" stroke="#3F3D56" stroke-width="2" stroke-miterlimit="10"/>
            <path id="Vector_40" d="M132.695 376.116C139.706 376.116 145.389 370.013 145.389 362.484C145.389 354.955 139.706 348.852 132.695 348.852C125.684 348.852 120 354.955 120 362.484C120 370.013 125.684 376.116 132.695 376.116Z" fill="#3F3D56"/>
            </g>b
            <g id="plant2">
            <path id="Vector_41" d="M279.626 190.286C306.958 190.286 329.114 166.493 329.114 137.143C329.114 107.793 306.958 84 279.626 84C252.295 84 230.138 107.793 230.138 137.143C230.138 166.493 252.295 190.286 279.626 190.286Z" fill="#63FF65"/>
            <path id="Vector_42" d="M279.657 458.883V137.338" stroke="#3F3D56" stroke-width="2" stroke-miterlimit="10"/>
            <path id="Vector_43" d="M279.657 150.818C286.668 150.818 292.352 144.715 292.352 137.186C292.352 129.657 286.668 123.554 279.657 123.554C272.646 123.554 266.963 129.657 266.963 137.186C266.963 144.715 272.646 150.818 279.657 150.818Z" fill="#3F3D56"/>
            <path id="Vector_44" d="M240.667 383.458C247.678 383.458 253.361 377.354 253.361 369.825C253.361 362.296 247.678 356.193 240.667 356.193C233.656 356.193 227.972 362.296 227.972 369.825C227.972 377.354 233.656 383.458 240.667 383.458Z" fill="#3F3D56"/>
            <path id="Vector_45" d="M279.657 206.821C279.657 206.821 277.844 164.935 240.667 169.803Z" fill="#3F3D56"/>
            <path id="Vector_46" d="M279.657 325.563C279.657 325.563 277.844 283.677 240.667 288.545Z" fill="#3F3D56"/>
            <path id="Vector_47" d="M279.657 455.136C279.657 455.136 287.818 373.72 240.667 369.825" stroke="#3F3D56" stroke-width="2" stroke-miterlimit="10"/>
            <path id="Vector_48" d="M319.427 255.582C326.438 255.582 332.121 249.478 332.121 241.949C332.121 234.42 326.438 228.317 319.427 228.317C312.416 228.317 306.732 234.42 306.732 241.949C306.732 249.478 312.416 255.582 319.427 255.582Z" fill="#3F3D56"/>
            <path id="Vector_49" d="M280.436 322.917C280.436 322.917 272.275 245.844 319.427 241.949" stroke="#3F3D56" stroke-width="2" stroke-miterlimit="10"/>
            </g>
            <defs>
            <linearGradient id="paint0_linear" x1="838.228" y1="117.722" x2="838.228" y2="102.496" gradientUnits="userSpaceOnUse">
            <stop stop-color="#808080" stop-opacity="0.25"/>
            <stop offset="0.53514" stop-color="#808080" stop-opacity="0.12"/>
            <stop offset="1" stop-color="#808080" stop-opacity="0.1"/>
            </linearGradient>
            </defs>
            </svg>
            